<mxfile host="app.diagrams.net" modified="2024-01-16T02:36:46.350Z" agent="Mozilla/5.0 (Windows NT 10.0; Win64; x64) AppleWebKit/537.36 (KHTML, like Gecko) Chrome/120.0.0.0 Safari/537.36" etag="rrDYN5reLnNP0hE_SPZs" version="22.1.18" type="github">
  <diagram name="第 1 页" id="ARMjeT0RUqKwLvwRUQr0">
    <mxGraphModel dx="1221" dy="630" grid="1" gridSize="10" guides="1" tooltips="1" connect="1" arrows="1" fold="1" page="1" pageScale="1" pageWidth="827" pageHeight="1169" math="0" shadow="0">
      <root>
        <mxCell id="0" />
        <mxCell id="1" parent="0" />
        <mxCell id="jhSxaOH5ONNa692QC93M-29" value="" style="edgeStyle=orthogonalEdgeStyle;rounded=0;orthogonalLoop=1;jettySize=auto;html=1;" parent="1" source="jhSxaOH5ONNa692QC93M-28" target="jhSxaOH5ONNa692QC93M-4" edge="1">
          <mxGeometry relative="1" as="geometry" />
        </mxCell>
        <mxCell id="jhSxaOH5ONNa692QC93M-28" value="入口" style="rounded=1;whiteSpace=wrap;html=1;fillColor=#1ba1e2;fontColor=#ffffff;strokeColor=#006EAF;" parent="1" vertex="1">
          <mxGeometry x="120" y="170" width="120" height="50" as="geometry" />
        </mxCell>
        <mxCell id="jhSxaOH5ONNa692QC93M-2" value="" style="endArrow=classic;html=1;rounded=0;" parent="1" edge="1">
          <mxGeometry width="50" height="50" relative="1" as="geometry">
            <mxPoint x="180" y="230" as="sourcePoint" />
            <mxPoint x="180" y="280" as="targetPoint" />
          </mxGeometry>
        </mxCell>
        <mxCell id="jhSxaOH5ONNa692QC93M-34" style="edgeStyle=orthogonalEdgeStyle;rounded=0;orthogonalLoop=1;jettySize=auto;html=1;entryX=0.5;entryY=0;entryDx=0;entryDy=0;" parent="1" source="jhSxaOH5ONNa692QC93M-4" target="jhSxaOH5ONNa692QC93M-9" edge="1">
          <mxGeometry relative="1" as="geometry" />
        </mxCell>
        <mxCell id="jhSxaOH5ONNa692QC93M-4" value="登录 选择公司&amp;nbsp;&lt;br&gt;newgroupcustNo" style="rounded=0;whiteSpace=wrap;html=1;" parent="1" vertex="1">
          <mxGeometry x="120" y="280" width="120" height="60" as="geometry" />
        </mxCell>
        <mxCell id="jhSxaOH5ONNa692QC93M-36" style="edgeStyle=orthogonalEdgeStyle;rounded=0;orthogonalLoop=1;jettySize=auto;html=1;entryX=0.5;entryY=0;entryDx=0;entryDy=0;" parent="1" source="jhSxaOH5ONNa692QC93M-6" target="jhSxaOH5ONNa692QC93M-12" edge="1">
          <mxGeometry relative="1" as="geometry" />
        </mxCell>
        <mxCell id="jhSxaOH5ONNa692QC93M-6" value="切换 九州通分公司&lt;br&gt;branchId" style="rounded=0;whiteSpace=wrap;html=1;" parent="1" vertex="1">
          <mxGeometry x="120" y="480" width="120" height="60" as="geometry" />
        </mxCell>
        <mxCell id="jhSxaOH5ONNa692QC93M-35" style="edgeStyle=orthogonalEdgeStyle;rounded=0;orthogonalLoop=1;jettySize=auto;html=1;entryX=0.5;entryY=0;entryDx=0;entryDy=0;" parent="1" source="jhSxaOH5ONNa692QC93M-9" target="jhSxaOH5ONNa692QC93M-6" edge="1">
          <mxGeometry relative="1" as="geometry" />
        </mxCell>
        <mxCell id="jhSxaOH5ONNa692QC93M-9" value="进入 我的" style="rounded=0;whiteSpace=wrap;html=1;" parent="1" vertex="1">
          <mxGeometry x="120" y="370" width="120" height="60" as="geometry" />
        </mxCell>
        <mxCell id="jhSxaOH5ONNa692QC93M-15" value="" style="edgeStyle=orthogonalEdgeStyle;rounded=0;orthogonalLoop=1;jettySize=auto;html=1;" parent="1" source="jhSxaOH5ONNa692QC93M-12" target="jhSxaOH5ONNa692QC93M-14" edge="1">
          <mxGeometry relative="1" as="geometry" />
        </mxCell>
        <mxCell id="jhSxaOH5ONNa692QC93M-12" value="去还款/去充值" style="rounded=0;whiteSpace=wrap;html=1;" parent="1" vertex="1">
          <mxGeometry x="120" y="590" width="120" height="60" as="geometry" />
        </mxCell>
        <mxCell id="jhSxaOH5ONNa692QC93M-17" value="" style="edgeStyle=orthogonalEdgeStyle;rounded=0;orthogonalLoop=1;jettySize=auto;html=1;" parent="1" source="jhSxaOH5ONNa692QC93M-14" target="jhSxaOH5ONNa692QC93M-16" edge="1">
          <mxGeometry relative="1" as="geometry" />
        </mxCell>
        <mxCell id="jhSxaOH5ONNa692QC93M-18" value="false&lt;br&gt;" style="edgeLabel;html=1;align=center;verticalAlign=middle;resizable=0;points=[];" parent="jhSxaOH5ONNa692QC93M-17" vertex="1" connectable="0">
          <mxGeometry x="-0.1778" y="-1" relative="1" as="geometry">
            <mxPoint as="offset" />
          </mxGeometry>
        </mxCell>
        <mxCell id="jhSxaOH5ONNa692QC93M-21" value="true" style="edgeStyle=orthogonalEdgeStyle;rounded=0;orthogonalLoop=1;jettySize=auto;html=1;" parent="1" source="jhSxaOH5ONNa692QC93M-14" target="jhSxaOH5ONNa692QC93M-20" edge="1">
          <mxGeometry relative="1" as="geometry" />
        </mxCell>
        <mxCell id="jhSxaOH5ONNa692QC93M-14" value="是否需要预加载" style="rhombus;whiteSpace=wrap;html=1;rounded=0;fillColor=#fff2cc;strokeColor=#d6b656;" parent="1" vertex="1">
          <mxGeometry x="310" y="580" width="110" height="80" as="geometry" />
        </mxCell>
        <mxCell id="jhSxaOH5ONNa692QC93M-16" value="直接读取" style="whiteSpace=wrap;html=1;rounded=0;fillColor=#d5e8d4;strokeColor=#82b366;" parent="1" vertex="1">
          <mxGeometry x="480" y="590" width="60" height="60" as="geometry" />
        </mxCell>
        <mxCell id="jhSxaOH5ONNa692QC93M-40" value="" style="edgeStyle=orthogonalEdgeStyle;rounded=0;orthogonalLoop=1;jettySize=auto;html=1;" parent="1" source="jhSxaOH5ONNa692QC93M-20" target="jhSxaOH5ONNa692QC93M-39" edge="1">
          <mxGeometry relative="1" as="geometry" />
        </mxCell>
        <mxCell id="jhSxaOH5ONNa692QC93M-20" value="预加载" style="whiteSpace=wrap;html=1;rounded=0;fillColor=#d5e8d4;strokeColor=#82b366;" parent="1" vertex="1">
          <mxGeometry x="330.63" y="480" width="68.75" height="60" as="geometry" />
        </mxCell>
        <mxCell id="jhSxaOH5ONNa692QC93M-43" value="" style="edgeStyle=orthogonalEdgeStyle;rounded=0;orthogonalLoop=1;jettySize=auto;html=1;" parent="1" source="jhSxaOH5ONNa692QC93M-39" target="jhSxaOH5ONNa692QC93M-42" edge="1">
          <mxGeometry relative="1" as="geometry" />
        </mxCell>
        <mxCell id="jhSxaOH5ONNa692QC93M-39" value="立即还款" style="whiteSpace=wrap;html=1;rounded=0;fillColor=#d5e8d4;strokeColor=#82b366;" parent="1" vertex="1">
          <mxGeometry x="560" y="480" width="70" height="60" as="geometry" />
        </mxCell>
        <mxCell id="jhSxaOH5ONNa692QC93M-78" style="edgeStyle=orthogonalEdgeStyle;rounded=0;orthogonalLoop=1;jettySize=auto;html=1;entryX=1;entryY=0.5;entryDx=0;entryDy=0;" parent="1" source="jhSxaOH5ONNa692QC93M-42" target="jhSxaOH5ONNa692QC93M-60" edge="1">
          <mxGeometry relative="1" as="geometry" />
        </mxCell>
        <mxCell id="jhSxaOH5ONNa692QC93M-42" value="修改回款金额明细" style="whiteSpace=wrap;html=1;rounded=0;fillColor=#d5e8d4;strokeColor=#82b366;" parent="1" vertex="1">
          <mxGeometry x="692.5" y="480" width="107.5" height="60" as="geometry" />
        </mxCell>
        <mxCell id="jhSxaOH5ONNa692QC93M-50" value="" style="endArrow=none;html=1;rounded=0;exitX=0.5;exitY=0;exitDx=0;exitDy=0;" parent="1" source="jhSxaOH5ONNa692QC93M-16" edge="1">
          <mxGeometry width="50" height="50" relative="1" as="geometry">
            <mxPoint x="670" y="500" as="sourcePoint" />
            <mxPoint x="510" y="510" as="targetPoint" />
          </mxGeometry>
        </mxCell>
        <mxCell id="jhSxaOH5ONNa692QC93M-79" style="edgeStyle=orthogonalEdgeStyle;rounded=0;orthogonalLoop=1;jettySize=auto;html=1;entryX=1;entryY=0.5;entryDx=0;entryDy=0;" parent="1" source="jhSxaOH5ONNa692QC93M-60" target="jhSxaOH5ONNa692QC93M-68" edge="1">
          <mxGeometry relative="1" as="geometry" />
        </mxCell>
        <mxCell id="jhSxaOH5ONNa692QC93M-85" value="通过" style="edgeLabel;html=1;align=center;verticalAlign=middle;resizable=0;points=[];" parent="jhSxaOH5ONNa692QC93M-79" vertex="1" connectable="0">
          <mxGeometry x="0.3733" relative="1" as="geometry">
            <mxPoint x="14" as="offset" />
          </mxGeometry>
        </mxCell>
        <mxCell id="jhSxaOH5ONNa692QC93M-60" value="金额校验" style="rhombus;whiteSpace=wrap;html=1;rounded=0;fillColor=#fff2cc;strokeColor=#d6b656;" parent="1" vertex="1">
          <mxGeometry x="630" y="360" width="80" height="80" as="geometry" />
        </mxCell>
        <mxCell id="jhSxaOH5ONNa692QC93M-89" value="" style="edgeStyle=orthogonalEdgeStyle;rounded=0;orthogonalLoop=1;jettySize=auto;html=1;" parent="1" source="jhSxaOH5ONNa692QC93M-68" target="jhSxaOH5ONNa692QC93M-88" edge="1">
          <mxGeometry relative="1" as="geometry" />
        </mxCell>
        <mxCell id="jhSxaOH5ONNa692QC93M-68" value="生成交易流水" style="whiteSpace=wrap;html=1;rounded=0;fillColor=#d5e8d4;strokeColor=#82b366;" parent="1" vertex="1">
          <mxGeometry x="480" y="370" width="100" height="60" as="geometry" />
        </mxCell>
        <mxCell id="jhSxaOH5ONNa692QC93M-82" value="" style="endArrow=none;html=1;rounded=0;" parent="1" edge="1">
          <mxGeometry width="50" height="50" relative="1" as="geometry">
            <mxPoint x="670" y="510" as="sourcePoint" />
            <mxPoint x="670" y="440" as="targetPoint" />
          </mxGeometry>
        </mxCell>
        <mxCell id="jhSxaOH5ONNa692QC93M-83" value="失败" style="edgeLabel;html=1;align=center;verticalAlign=middle;resizable=0;points=[];" parent="jhSxaOH5ONNa692QC93M-82" vertex="1" connectable="0">
          <mxGeometry x="0.0571" y="-4" relative="1" as="geometry">
            <mxPoint as="offset" />
          </mxGeometry>
        </mxCell>
        <mxCell id="jhSxaOH5ONNa692QC93M-88" value="结束" style="ellipse;whiteSpace=wrap;html=1;rounded=0;fillColor=#f8cecc;strokeColor=#b85450;" parent="1" vertex="1">
          <mxGeometry x="495" y="170" width="70" height="65" as="geometry" />
        </mxCell>
        <mxCell id="svU6l3ukT8-pbaPzspIF-2" value="下游客户端-回款，’登录--生成流水‘流程图" style="text;html=1;align=center;verticalAlign=middle;resizable=0;points=[];autosize=1;strokeColor=none;fillColor=none;" vertex="1" parent="1">
          <mxGeometry x="10" y="30" width="240" height="30" as="geometry" />
        </mxCell>
      </root>
    </mxGraphModel>
  </diagram>
</mxfile>
